# xmcd
#
# Track frame offsets:
#	150
#	16187
#	35014
#	50855
#	68235
#	86156
#	96967
#	117844
#	136205
#	154698
#	168616
#	186339
#	204578
#	218381
#	233530
#	243338
#	261375
#	276793
#	297599
#
# Disc length: 4187 seconds
#
# Revision: 2
# Processed by: cddbd v1.5.2PL0 Copyright (c) Steve Scherf et al.
# Submitted via: EasyCDDAExtractor 11.5.0.1
#
DISCID=1b105913
DTITLE=Various Artist - NCT 068
DYEAR=2004
DGENRE=Country
TTITLE0=Toby Keith and Krystal - Mockingbird
TTITLE1=Martina McBride - God's Will
TTITLE2=Montgomery Gentry - Gone
TTITLE3=Trent Willmon - Home Sweet Holiday Inn
TTITLE4=Brooks and Dunn - It's Getting Better All The Time
TTITLE5=Joe Nichols - What's A Guy Gotta Do
TTITLE6=Charlie Robinson - El Cerrito Place
TTITLE7=Doug Stone - Georgia
TTITLE8=Blaine Larson - How Do You Get That Lonely
TTITLE9=Keith Anderson - Pickin' Wildflowers
TTITLE10=SheDaisy - Come Home Soon
TTITLE11=Erica Dawson - The First Time I Ever Saw Your Face
TTITLE12=Holly Adams - What's The Matter Baby
TTITLE13=Sheryl Crow - No Depression In Heaven
TTITLE14=Joe Nichols - Let It Snow! Let It Snow! Let It Snow!
TTITLE15=Alison Krauss - Shimmy Down The Chimney
TTITLE16=Kenny Chesney - The Angel At The Top Of My Tree
TTITLE17=Lonestar - Little Drummer Boy
TTITLE18=LeAnn Rimes - A Different Kind Of Christmas
EXTD=
EXTT0=
EXTT1=
EXTT2=
EXTT3=
EXTT4=
EXTT5=
EXTT6=
EXTT7=
EXTT8=
EXTT9=
EXTT10=
EXTT11=
EXTT12=
EXTT13=
EXTT14=
EXTT15=
EXTT16=
EXTT17=
EXTT18=
PLAYORDER=
